<?xml version="1.0" encoding="UTF-8"?>
<svg width="85mm" height="85mm" viewBox="0 0 85 85" xmlns="http://www.w3.org/2000/svg">
  <!-- IDE-style Background -->
  <rect width="85" height="85" fill="#1e1e1e"/>
  
  <!-- Terminal Window -->
  <rect x="2" y="2" width="81" height="81" fill="#2d2d30" stroke="#007acc" stroke-width="0.3" rx="2"/>
  
  <!-- Title Bar -->
  <rect x="2" y="2" width="81" height="6" fill="#37373d" rx="2"/>
  
  <!-- Window Controls -->
  <circle cx="6" cy="5" r="0.8" fill="#ff5f56"/>
  <circle cx="9" cy="5" r="0.8" fill="#ffbd2e"/>
  <circle cx="12" cy="5" r="0.8" fill="#27ca3f"/>
  
  <!-- Terminal Tab -->
  <rect x="16" y="2.5" width="20" height="5" fill="#1e1e1e" rx="1"/>
  <text x="17" y="6" fill="#ffffff" font-family="'Courier New', monospace" font-size="2.5">terminal</text>
  
  <!-- Terminal Content -->
  <g font-family="'Courier New', monospace" font-size="2.5" fill="#d4d4d4">
    <!-- Command History -->
    <text x="4" y="14" fill="#58d68d">keval@dev:~$</text>
    <text x="23" y="14" fill="#ffffff">npm run build</text>
    
    <text x="4" y="17.5" fill="#85c1e9">✓ Build successful!</text>
    
    <text x="4" y="21" fill="#58d68d">keval@dev:~$</text>
    <text x="23" y="21" fill="#ffffff">git commit -m</text>
    
    <text x="4" y="24.5" fill="#ce9178">"Added QR code"</text>
    
    <text x="4" y="28" fill="#85c1e9">[main 7a8b9c2] Added QR</text>
    
    <text x="4" y="31.5" fill="#58d68d">keval@dev:~$</text>
    <text x="23" y="31.5" fill="#ffffff">echo "Scan QR:"</text>
  </g>
  
  <!-- QR Code Container (centered) -->
  <rect x="22" y="36" width="41" height="41" fill="#ffffff" rx="2"/>
  <rect x="23.5" y="37.5" width="38" height="38" fill="#000000" rx="1"/>
  
  <!-- QR Code Pattern (Enhanced) -->
  <!-- Corner markers -->
  <rect x="26" y="40" width="6" height="6" fill="#ffffff"/>
  <rect x="26.5" y="40.5" width="5" height="5" fill="#000000"/>
  <rect x="28" y="42" width="2" height="2" fill="#ffffff"/>
  
  <rect x="52" y="40" width="6" height="6" fill="#ffffff"/>
  <rect x="52.5" y="40.5" width="5" height="5" fill="#000000"/>
  <rect x="54" y="42" width="2" height="2" fill="#ffffff"/>
  
  <rect x="26" y="66" width="6" height="6" fill="#ffffff"/>
  <rect x="26.5" y="66.5" width="5" height="5" fill="#000000"/>
  <rect x="28" y="68" width="2" height="2" fill="#ffffff"/>
  
  <!-- Data pattern (more detailed) -->
  <g fill="#ffffff">
    <!-- Top rows -->
    <rect x="34" y="40" width="1" height="1"/>
    <rect x="36" y="40" width="1" height="1"/>
    <rect x="38" y="40" width="1" height="1"/>
    <rect x="40" y="40" width="1" height="1"/>
    <rect x="42" y="40" width="1" height="1"/>
    <rect x="44" y="40" width="1" height="1"/>
    <rect x="46" y="40" width="1" height="1"/>
    <rect x="48" y="40" width="1" height="1"/>
    <rect x="50" y="40" width="1" height="1"/>
    
    <!-- Pattern rows -->
    <rect x="34" y="42" width="1" height="1"/>
    <rect x="38" y="42" width="1" height="1"/>
    <rect x="42" y="42" width="1" height="1"/>
    <rect x="46" y="42" width="1" height="1"/>
    <rect x="50" y="42" width="1" height="1"/>
    
    <rect x="36" y="44" width="1" height="1"/>
    <rect x="40" y="44" width="1" height="1"/>
    <rect x="44" y="44" width="1" height="1"/>
    <rect x="48" y="44" width="1" height="1"/>
    
    <!-- Center area with special pattern -->
    <rect x="39" y="53" width="6" height="6" fill="#ffffff"/>
    <rect x="40" y="54" width="4" height="4" fill="#000000"/>
    <rect x="41" y="55" width="2" height="2" fill="#ffffff"/>
    
    <!-- More data patterns -->
    <rect x="34" y="60" width="1" height="1"/>
    <rect x="36" y="60" width="1" height="1"/>
    <rect x="46" y="60" width="1" height="1"/>
    <rect x="48" y="60" width="1" height="1"/>
    <rect x="50" y="60" width="1" height="1"/>
    
    <rect x="34" y="62" width="1" height="1"/>
    <rect x="38" y="62" width="1" height="1"/>
    <rect x="42" y="62" width="1" height="1"/>
    <rect x="46" y="62" width="1" height="1"/>
    
    <rect x="36" y="64" width="1" height="1"/>
    <rect x="40" y="64" width="1" height="1"/>
    <rect x="44" y="64" width="1" height="1"/>
    <rect x="48" y="64" width="1" height="1"/>
    
    <!-- Bottom patterns -->
    <rect x="34" y="68" width="1" height="1"/>
    <rect x="36" y="68" width="1" height="1"/>
    <rect x="38" y="68" width="1" height="1"/>
    <rect x="40" y="68" width="1" height="1"/>
    <rect x="42" y="68" width="1" height="1"/>
    <rect x="44" y="68" width="1" height="1"/>
    <rect x="46" y="68" width="1" height="1"/>
    <rect x="48" y="68" width="1" height="1"/>
    <rect x="50" y="68" width="1" height="1"/>
    
    <rect x="34" y="70" width="1" height="1"/>
    <rect x="38" y="70" width="1" height="1"/>
    <rect x="42" y="70" width="1" height="1"/>
    <rect x="46" y="70" width="1" height="1"/>
    <rect x="50" y="70" width="1" height="1"/>
  </g>
  
  <!-- Terminal Output for QR Code -->
  <g font-family="'Courier New', monospace" font-size="2.2">
    <text x="4" y="79" fill="#f39c12">Scan QR for portfolio:</text>
    <text x="4" y="81" fill="#85c1e9">→ https://keval.live</text>
  </g>
  
  <!-- Terminal Cursor -->
  <text x="4" y="87" fill="#58d68d" font-family="'Courier New', monospace" font-size="2.2">keval@dev:~$</text>
  <rect x="22" y="85.5" width="0.3" height="2" fill="#ffffff">
    <animate attributeName="opacity" values="1;0;1" dur="1s" repeatCount="indefinite"/>
  </rect>
</svg>
